# xmcd CD database file
#
# Track frame offsets:
#	187
#	22967
#	35175
#
# Disc length: 759 seconds
#
# Revision: 0
# Processed by: cddbd v1.5PL3 Copyright (c) Steve Scherf et al.
# Submitted via: CDex 1.50Beta7
#
DISCID=1e02f503
DTITLE=cry baby - お守り
DYEAR=1999
DGENRE=rock_pop
TTITLE0=お守り
TTITLE1=Mach
TTITLE2=青
EXTD=YEAR: 1999
EXTT0=
EXTT1=
EXTT2=
PLAYORDER=
